<svg xmlns="http://www.w3.org/2000/svg" viewBox="0 0 64 64">
  <defs><linearGradient id="g" x1="0" y1="0" x2="1" y2="1"><stop offset="0" stop-color="#46176E"/><stop offset="1" stop-color="#26024D"/></linearGradient></defs>
  <circle cx="32" cy="32" r="32" fill="url(#g)"/>
  <path d="M32 50 C18 40 12 33 12 25 a9.5 9.5 0 0 1 20-3 a9.5 9.5 0 0 1 20 3 c0 8-6 15-20 25z" fill="none" stroke="#FF3DBA" stroke-width="5" stroke-linejoin="round"/>
  <path d="M32 46 C21 38 17 32 17 26 a6 6 0 0 1 15-2 a6 6 0 0 1 15 2 c0 6-4 12-15 20z" fill="#fff"/>
</svg>
